<svg xmlns="http://www.w3.org/2000/svg" width="89" height="40" viewBox="0 0 89 40" fill="none">
<path d="M60.3899 39.4384L60.8428 37.8735C61.3819 36.0118 61.1813 34.291 60.2764 33.0267C59.4447 31.8622 58.0581 31.1765 56.374 31.0967L24.4766 30.6927C24.3776 30.6906 24.2806 30.6653 24.1932 30.6188C24.1058 30.5724 24.0305 30.5061 23.9734 30.4253C23.9181 30.3414 23.8832 30.2457 23.8713 30.1459C23.8595 30.0461 23.871 29.9449 23.9051 29.8503C23.96 29.694 24.0595 29.5572 24.1911 29.4567C24.3228 29.3562 24.481 29.2964 24.6462 29.2846L56.8398 28.8763C60.658 28.7009 64.7926 25.6022 66.2402 21.8235L68.0768 17.0262C68.1259 16.896 68.1503 16.7578 68.1486 16.6186C68.1489 16.5423 68.1412 16.4662 68.1256 16.3915C66.0404 7.01117 57.6736 0 47.6686 0C38.45 0 30.6209 5.95022 27.8175 14.2207C25.9202 12.7966 23.5548 12.1419 21.1952 12.3878C16.7725 12.827 13.2166 16.3879 12.7788 20.8114C12.6661 21.9159 12.7483 23.0317 13.0218 24.1078C5.79424 24.3184 0 30.2377 0 37.5141C0.000652666 38.1637 0.0487002 38.8123 0.14376 39.4549C0.164346 39.6035 0.237829 39.7396 0.350721 39.8384C0.463613 39.9372 0.608339 39.9919 0.758333 39.9926L59.6467 39.9997C59.6522 40.0001 59.6577 40.0001 59.6632 39.9997C59.8284 39.996 59.988 39.9394 60.1188 39.8384C60.2496 39.7374 60.3446 39.5972 60.3899 39.4384V39.4384Z" fill="#F6821F"/>
<path d="M71.0173 17.375C70.7212 17.375 70.4267 17.3824 70.1339 17.3973C70.0867 17.4007 70.0402 17.4108 69.9959 17.4275C69.919 17.4538 69.8496 17.4983 69.7936 17.5572C69.7377 17.6162 69.6969 17.6878 69.6746 17.766L68.4203 22.0982C67.8812 23.9599 68.0818 25.6793 68.986 26.9437C69.8184 28.1095 71.2049 28.7938 72.8891 28.8736L79.6882 29.2819C79.784 29.2851 79.8777 29.3105 79.9619 29.3561C80.0461 29.4018 80.1185 29.4665 80.1734 29.545C80.2298 29.6291 80.2657 29.7252 80.2782 29.8257C80.2907 29.9263 80.2794 30.0283 80.2453 30.1236C80.1904 30.2796 80.0911 30.4162 79.9598 30.5167C79.8284 30.6172 79.6706 30.6772 79.5056 30.6893L72.4398 31.0976C68.6043 31.2744 64.4698 34.3717 63.0236 38.1505L62.5132 39.4845C62.4919 39.5403 62.4841 39.6003 62.4904 39.6596C62.4968 39.7189 62.5172 39.7759 62.5499 39.8258C62.5826 39.8757 62.6267 39.9171 62.6786 39.9467C62.7304 39.9762 62.7886 39.993 62.8482 39.9956C62.8547 39.9956 62.8604 39.9956 62.8669 39.9956H87.176C87.3172 39.9967 87.4549 39.9516 87.5681 39.8671C87.6813 39.7826 87.7637 39.6634 87.8027 39.5277C88.234 37.9909 88.4517 36.402 88.4497 34.8059C88.4504 25.1797 80.6449 17.375 71.0173 17.375Z" fill="#FBAD41"/>
</svg>
